<svg style="background-color:#ffffff00" version="1.1" xmlns="http://www.w3.org/2000/svg" xmlns:xlink="http://www.w3.org/1999/xlink" xml:space="preserve" fill="#d80026" viewBox="0 0 86.289 19.314">
<symbol version="1.1" id="logoClarin" xmlns="http://www.w3.org/2000/svg" viewBox="0 0 86.289 19.314" enable-background="new 0 0 86.289 19.314"><g id="Capa_2"><g id="Capa_1-2"><path d="M14.24,17.248c-1.556,0.803-3.29,1.202-5.041,1.156c-5.926,0-8.162-3.865-8.162-8.338c0-5.101,2.825-9.026,8.614-9.026c1.678,0.024,3.321,0.483,4.769,1.333L14.184,6.71l-1.668-0.176l-0.332-1.824c-0.18-1.14-0.984-1.825-2.513-1.825c-2.844,0-4.593,2.549-4.593,6.802c0,4.597,1.561,6.874,4.493,6.874c1.708,0,2.336-0.4,2.668-1.708l0.432-1.509h1.769L14.24,17.248z M20.417,15.048c0,1.512,0.08,1.708,0.904,1.844l0.548,0.081v1.156h-6.53v-1.157l0.588-0.08c0.824-0.116,0.904-0.272,0.904-1.824V3.492c0-1.02-0.256-1.236-1.06-1.432L15.26,1.94l0.14-1.096h5.001L20.417,15.048z M33.941,18.073c-0.679,0.212-1.385,0.324-2.097,0.332c-1.885,0-2.376-0.824-2.553-1.628c-0.608,0.804-1.548,1.628-3.449,1.628c-2.825,0-3.337-2-3.337-3.357c0-3.669,3.749-3.845,6.574-3.941V9.81c0-1.156-0.472-1.925-1.824-1.925c-1.22,0.056-2.412,0.378-3.493,0.944l-0.721-1.492c1.518-1.048,3.313-1.622,5.157-1.648c3.081,0,4.458,0.98,4.458,4.613v5.473c0,0.96,0.136,1.116,0.92,1.201l0.336,0.04L33.941,18.073z M29.095,12.519c-1.96-0.061-3.041,0.488-3.041,1.96c0,1.08,0.568,1.629,1.492,1.629c0.924,0,1.548-0.4,1.548-1.293V12.519z M39.77,15.048c0,1.512,0.116,1.708,0.96,1.809l0.924,0.096v1.177h-6.869v-1.177l0.532-0.08c0.824-0.156,0.88-0.272,0.88-1.824V8.85c0-0.925-0.156-1.377-0.96-1.533l-0.592-0.096l0.08-1.2h4.401l0.236,0.14l0.292,1.725c0.748-1.292,1.668-2.196,2.945-2.196c0.445,0.004,0.888,0.07,1.316,0.196l-0.28,4.117h-0.292c-1.708-1.02-2.829-1.276-3.573-0.94V15.048z M49.737,15.048c0,1.512,0.12,1.708,0.944,1.844l0.548,0.081v1.156h-6.709v-1.157l0.588-0.08c0.844-0.136,1.041-0.272,1.041-1.824V8.866c0-1.076-0.236-1.373-1.041-1.568l-0.432-0.076l0.08-1.2H49.5l0.236,0.14V15.048z M56.938,15.048c0,1.512,0,1.809,0.824,1.884l0.372,0.04v1.157h-6.162v-1.157l0.452-0.08c0.844-0.136,0.944-0.292,0.944-1.844V8.866c0-1.02-0.16-1.373-0.984-1.548l-0.568-0.096l0.08-1.2h4.493l0.236,0.14l0.176,1.393c1.04-1.06,2.333-1.864,4-1.864c2.001,0,3.201,1.156,3.201,3.865v5.494c0,1.492,0.077,1.749,0.92,1.844l0.532,0.081v1.156h-6.162v-1.157l0.4-0.06c0.704-0.096,0.744-0.373,0.744-1.725V9.927c0-1.333-0.528-1.725-1.548-1.725c-0.667-0.019-1.329,0.129-1.925,0.432L56.938,15.048z M50.993,1.844V1.588L48.464,0l-3.081,3.649l1.097,0.98L50.993,1.844z"></path><path d="M77.28,9.33l-2.989,1.012v0.032c0.011,1.394-1.11,2.533-2.505,2.544c-1.395,0.011-2.533-1.11-2.544-2.504c-0.011-1.395,1.11-2.534,2.505-2.544c0.958-0.008,1.839,0.529,2.272,1.384c0.036,0.076,6.001-1.488,8.578-4.914c-1.175-1.504-2.815-2.576-4.665-3.048c-0.708-0.18-1.435-0.271-2.165-0.272c-1.341-0.008-2.666,0.302-3.865,0.905c-0.894,0.44-1.706,1.03-2.401,1.744c-0.901,0.896-1.577,1.993-1.973,3.201c-1.692,5.202,2.401,6.954,4.226,6.954c1.287-0.005,2.535-0.445,3.541-1.248C76.32,11.762,77.023,10.613,77.28,9.33z M84.433,9.154c-1.447-0.298-2.929-0.389-4.401-0.268c-1.068,5.726-7.446,9.118-5.333,9.41c0.35,0.052,0.703,0.08,1.056,0.084c3.985,0.011,7.463-2.699,8.426-6.566c0.175-0.687,0.263-1.392,0.264-2.1C84.449,9.53,84.445,9.342,84.433,9.154z"></path></g></g></symbol><use xlink:href="#logoClarin"></use></svg>