<svg viewBox="0 0 434 45" style="background-color:#ffffff00" version="1.1" xmlns="http://www.w3.org/2000/svg" xmlns:xlink="http://www.w3.org/1999/xlink" xml:space="preserve" x="0px" y="0px" width="434px" height="45px">
	<g>
		<path d="M 0.1413 43.6655 L 0.1413 2.3481 L 11.4573 2.3481 L 11.4573 35.8738 L 27.6658 35.8738 L 27.6658 43.6655 L 0.1413 43.6655 Z" fill="#221e1f"></path>
		<path d="M 48.1156 40.301 C 45.8172 43.0133 42.9292 44.0175 39.1575 44.0175 C 33.6167 44.0175 29.3138 41.0089 29.3138 34.9293 C 29.3138 28.1995 34.264 25.1901 41.4558 25.1901 C 43.9299 25.1901 45.6405 25.368 47.5268 25.7796 L 47.5268 23.2433 C 47.5268 20.5262 46.0525 19.2874 42.6353 19.2874 C 39.1575 19.2874 37.3883 20.5849 35.9745 21.765 L 31.4365 21.765 L 31.4365 14.3293 C 34.5003 13.0905 38.8031 12.0854 44.9912 12.0854 C 53.7745 12.0854 58.0178 14.9766 58.0178 22.1199 L 58.0178 36.2288 C 58.0178 36.876 58.7842 37.7022 59.4335 37.7022 L 60.8463 37.7022 L 60.8463 42.7209 C 59.374 43.6049 57.2523 44.1357 54.6572 44.1357 C 50.8865 44.1357 48.9406 42.7209 48.1156 40.301 ZM 47.5268 36.3431 L 47.5268 30.6791 C 46.407 30.4425 45.1094 30.3242 43.8713 30.3242 C 41.0438 30.3242 39.3333 31.5052 39.3333 34.1599 C 39.3333 36.9347 40.9257 37.9975 43.225 37.9975 C 44.9326 37.9975 46.2888 37.4059 47.5268 36.3431 Z" fill="#221e1f"></path>
		<path d="M 64.616 2.3481 L 79.7652 2.3481 C 90.965 2.3481 96.62 6.5964 96.62 15.8027 C 96.62 24.8351 90.6105 29.1431 79.3541 29.1431 L 75.934 29.1431 L 75.934 43.6655 L 64.616 43.6655 L 64.616 2.3481 ZM 75.8754 22.0623 L 79.2946 22.0623 C 83.8903 22.0623 85.4241 19.7 85.4241 15.8634 C 85.4241 11.9671 84.068 9.9608 79.2946 9.9608 L 75.8754 9.9608 L 75.8754 22.0623 Z" fill="#221e1f"></path>
		<path d="M 96.62 28.2592 C 96.62 18.2833 103.8109 12.0854 113.181 12.0854 C 122.4964 12.0854 129.6854 18.2833 129.6854 28.2592 C 129.6854 38.1754 122.4964 44.1357 113.181 44.1357 C 103.8109 44.1357 96.62 38.1754 96.62 28.2592 ZM 118.9581 28.3775 C 118.9581 22.1805 116.6012 19.3451 113.181 19.3451 C 109.7061 19.3451 107.3473 22.1805 107.3473 28.3775 C 107.3473 34.5148 109.7061 37.1713 113.181 37.1713 C 116.6012 37.1713 118.9581 34.5148 118.9581 28.3775 Z" fill="#221e1f"></path>
		<path d="M 132.632 43.6655 L 132.632 2.3481 L 139.3494 2.3481 C 142.6504 2.3481 143.2411 3.1743 143.2411 7.8958 L 143.2411 43.6655 L 132.632 43.6655 Z" fill="#221e1f"></path>
		<path d="M 147.8964 43.6655 L 147.8964 12.5566 L 154.7328 12.5566 C 157.9167 12.5566 158.4459 13.6194 158.4459 18.5199 L 158.4459 43.6655 L 147.8964 43.6655 ZM 149.4878 10.5504 L 149.4878 8.6036 L 151.4327 2.1691 L 161.6279 2.1691 L 161.6279 4.7073 L 155.676 10.5504 L 149.4878 10.5504 Z" fill="#221e1f"></path>
		<path d="M 161.5097 12.5566 L 164.8694 12.5566 L 164.8694 4.6497 L 175.4785 4.6497 L 175.4785 12.5566 L 181.2556 12.5566 L 181.2556 19.4058 L 175.4785 19.4058 L 175.4785 33.5703 C 175.4785 36.3431 176.5398 37.231 179.3116 37.231 L 181.3737 37.231 L 181.3737 43.3682 C 179.959 43.7838 177.9545 44.1944 175.3008 44.1944 C 168.9369 44.1944 164.8694 41.9505 164.8694 35.166 L 164.8694 19.4058 L 161.5097 19.4058 L 161.5097 12.5566 Z" fill="#221e1f"></path>
		<path d="M 184.0255 5.7125 C 184.0255 2.8193 186.3824 0.6937 189.5068 0.6937 C 192.6887 0.6937 194.988 2.8193 194.988 5.7125 C 194.988 8.6036 192.6887 10.6686 189.5068 10.6686 C 186.3824 10.6686 184.0255 8.6036 184.0255 5.7125 ZM 184.2022 43.6655 L 184.2022 12.5566 L 191.0377 12.5566 C 194.2206 12.5566 194.7518 13.6194 194.7518 18.5199 L 194.7518 43.6655 L 184.2022 43.6655 Z" fill="#221e1f"></path>
		<path d="M 197.6984 28.1995 C 197.6984 18.1063 204.7701 12.0854 214.9086 12.0854 C 219.4458 12.0854 222.6863 13.1482 224.7523 14.2716 L 224.7523 21.5284 L 220.92 21.5284 C 219.8002 20.5262 217.9139 19.5817 215.3793 19.5817 C 211.3127 19.5817 208.4843 22.4152 208.4843 28.3179 C 208.4843 34.2195 211.0764 36.8163 215.1429 36.8163 C 218.3279 36.8163 220.0365 35.7555 221.3331 34.6331 L 224.8685 34.6331 L 224.8685 41.3032 C 222.864 42.6027 219.3296 44.1357 214.2594 44.1357 C 203.8865 44.1357 197.6984 38.4678 197.6984 28.1995 Z" fill="#221e1f"></path>
		<path d="M 245.2021 40.301 C 242.9037 43.0133 240.0157 44.0175 236.245 44.0175 C 230.7042 44.0175 226.4014 41.0089 226.4014 34.9293 C 226.4014 28.1995 231.3515 25.1901 238.5414 25.1901 C 241.0175 25.1901 242.729 25.368 244.6133 25.7796 L 244.6133 23.2433 C 244.6133 20.5262 243.14 19.2874 239.7198 19.2874 C 236.245 19.2874 234.4749 20.5849 233.063 21.765 L 228.5229 21.765 L 228.5229 14.3293 C 231.5878 13.0905 235.8906 12.0854 242.0787 12.0854 C 250.8611 12.0854 255.1043 14.9766 255.1043 22.1199 L 255.1043 36.2288 C 255.1043 36.876 255.8698 37.7022 256.52 37.7022 L 257.9348 37.7022 L 257.9348 42.7209 C 256.4604 43.6049 254.3398 44.1357 251.7446 44.1357 C 247.974 44.1357 246.0291 42.7209 245.2021 40.301 ZM 244.6133 36.3431 L 244.6133 30.6791 C 243.4944 30.4425 242.1969 30.3242 240.9589 30.3242 C 238.1304 30.3242 236.4197 31.5052 236.4197 34.1599 C 236.4197 36.9347 238.0122 37.9975 240.3105 37.9975 C 242.0201 37.9975 243.3763 37.4059 244.6133 36.3431 Z" fill="#221e1f"></path>
	</g>
	<g>
		<path d="M 259.9949 23.0068 C 259.9949 9.3692 269.0711 1.9325 279.7983 1.9325 C 290.4689 1.9325 299.5442 9.3692 299.5442 23.0068 C 299.5442 36.6394 290.4689 44.0761 279.7983 44.0761 C 269.0711 44.0761 259.9949 36.6394 259.9949 23.0068 ZM 292.4128 23.1251 C 292.4128 12.146 287.0488 6.5964 279.7983 6.5964 C 272.4903 6.5964 267.1262 12.146 267.1262 23.1251 C 267.1262 34.0435 272.4903 39.5912 279.7983 39.5912 C 287.0488 39.5912 292.4128 34.0435 292.4128 23.1251 Z" fill="#221e1f"></path>
		<path d="M 301.9558 39.8855 L 304.2551 39.8855 C 305.0235 39.8855 305.8485 39.0593 305.8485 38.2938 L 305.8485 18.4016 C 305.8485 17.6937 305.0235 16.7492 304.2551 16.7492 L 301.7214 16.7492 L 301.7214 12.7356 L 310.7391 12.7356 C 311.6256 12.7356 312.272 13.5637 312.2124 16.5126 L 312.2124 17.3388 C 315.2782 14.5082 319.58 12.3826 324.3553 12.3826 C 328.7754 12.3826 332.4298 13.9744 332.4298 20.0549 L 332.4298 38.2938 C 332.4298 39.1199 333.2529 39.8855 333.9618 39.8855 L 335.9066 39.8855 L 335.9066 43.6655 L 321.8207 43.6655 L 321.8207 39.8855 L 326.064 39.8855 L 326.064 22.1805 C 326.064 18.343 324.3553 17.3984 321.2321 17.3984 C 317.9309 17.3984 314.8661 18.7565 312.2124 20.3483 L 312.2124 39.8855 L 316.5162 39.8855 L 316.5162 43.6655 L 301.9558 43.6655 L 301.9558 39.8855 Z" fill="#221e1f"></path>
		<path d="M 337.5567 39.8855 L 339.7965 39.8855 C 340.6205 39.8855 341.4456 39.0593 341.4456 38.2938 L 341.4456 7.8958 C 341.4456 7.1859 340.6205 6.2415 339.7965 6.2415 L 337.38 6.2415 L 337.38 2.3481 L 346.6339 2.3481 C 347.4589 2.3481 347.8114 2.877 347.8114 3.9398 L 347.8114 38.2938 C 347.8114 39.1199 348.6384 39.8855 349.4028 39.8855 L 351.7021 39.8855 L 351.7021 43.6655 L 337.5567 43.6655 L 337.5567 39.8855 Z" fill="#221e1f"></path>
		<path d="M 353.3483 39.8855 L 355.6486 39.8855 C 356.416 39.8855 357.2411 39.0593 357.2411 38.2938 L 357.2411 18.4016 C 357.2411 17.6937 356.4756 16.7492 355.7072 16.7492 L 353.116 16.7492 L 353.116 12.7356 L 362.4275 12.7356 C 363.2524 12.7356 363.6069 13.4454 363.6069 15.4498 L 363.6069 38.2938 C 363.6069 39.1199 364.4299 39.8855 365.1964 39.8855 L 367.4957 39.8855 L 367.4957 43.6655 L 353.3483 43.6655 L 353.3483 39.8855 ZM 356.5908 5.8885 C 356.5908 3.8792 358.1842 2.2874 360.2463 2.2874 C 362.2498 2.2874 363.9017 3.8792 363.9017 5.8885 C 363.9017 7.8958 362.2498 9.4875 360.2463 9.4875 C 358.1842 9.4875 356.5908 7.8958 356.5908 5.8885 Z" fill="#221e1f"></path>
		<path d="M 369.1438 39.8855 L 371.4431 39.8855 C 372.2115 39.8855 373.0366 39.0593 373.0366 38.2938 L 373.0366 18.4016 C 373.0366 17.6937 372.2115 16.7492 371.4431 16.7492 L 368.9105 16.7492 L 368.9105 12.7356 L 377.9271 12.7356 C 378.8127 12.7356 379.461 13.5637 379.4014 16.5126 L 379.4014 17.3388 C 382.4662 14.5082 386.7681 12.3826 391.5434 12.3826 C 395.9644 12.3826 399.6179 13.9744 399.6179 20.0549 L 399.6179 38.2938 C 399.6179 39.1199 400.4419 39.8855 401.1508 39.8855 L 403.0947 39.8855 L 403.0947 43.6655 L 389.0088 43.6655 L 389.0088 39.8855 L 393.2521 39.8855 L 393.2521 22.1805 C 393.2521 18.343 391.5434 17.3984 388.42 17.3984 C 385.12 17.3984 382.0542 18.7565 379.4014 20.3483 L 379.4014 39.8855 L 383.7042 39.8855 L 383.7042 43.6655 L 369.1438 43.6655 L 369.1438 39.8855 Z" fill="#221e1f"></path>
		<path d="M 405.1558 28.3179 C 405.1558 18.5199 411.2249 12.3826 420.1858 12.3826 C 428.8491 12.3826 433.8588 16.9252 433.8588 27.2551 C 433.8588 28.1409 433.8011 28.967 433.8011 29.2037 L 411.8156 29.2037 C 412.0518 36.4028 415.1761 39.9461 421.3057 39.9461 C 425.6671 39.9461 427.6706 38.4101 429.2631 36.4614 L 432.9156 36.4614 L 432.9156 40.83 C 430.501 42.4237 427.0233 44.0175 420.8351 44.0175 C 410.4603 44.0175 405.1558 37.9975 405.1558 28.3179 ZM 427.4343 25.368 C 427.2009 18.8162 424.6653 16.3366 420.1858 16.3366 C 415.5286 16.3366 412.5224 19.2874 411.9337 25.368 L 427.4343 25.368 Z" fill="#221e1f"></path>
	</g>
</svg>