<svg viewBox="0 0 293.64 65.76" style="background-color:#ffffff00" version="1.1" xmlns="http://www.w3.org/2000/svg" xmlns:xlink="http://www.w3.org/1999/xlink" xml:space="preserve" x="0px" y="0px" width="293.64px" height="65.76px">
                            <circle cx="32.88" cy="32.88" r="32.88" style="fill:#4f78a8"></circle>
                            <path d="M292.92,52.7l.72-13.65-2.75-.25C288.74,47,284.73,50,275.87,50c-3.24,0-4.18-.15-4.18-2.65V21.85c0-2,.44-2.65,2.81-2.65H278V16.6H256.18v2.6H259c2.42,0,2.75.65,2.75,2.65v25.6c0,2-.44,2.6-2.8,2.6h-2.81V52.7ZM254.63,16.6H233v2.6h3c2.42,0,2.81.65,2.81,2.65v25.6c0,2-.44,2.6-2.81,2.6h-3V52.7h21.61V50.05H251.5c-2.37,0-2.75-.6-2.75-2.6V21.85c0-2,.38-2.65,2.75-2.65h3.13Zm-24.7,0H194v2.6h2.8c2.42,0,2.81.65,2.81,2.65v25.6c0,2-.44,2.6-2.81,2.6H194V52.7h22V50.05h-4c-2.36,0-2.75-.6-2.75-2.6V35.4h.77c4.84,0,6.88,1.9,7.81,6.9h2.75V25.75h-2.75c-.93,5-2.91,7-7.81,7h-.77V22c0-2.5.83-2.7,4-2.7,8.41,0,12.21,2.65,14.3,10.3h2.69ZM165.52,35.35c.77-.05,1.54-.05,2.2-.05,6.32,0,7.48,1.65,7.86,7.15.17,2.75-.27,5.35,1.16,7.75,1.32,2.25,4,3.4,8,3.4,5.78,0,9.19-3.2,9.19-8.8v-.4h-2.81c-.05,3.25-.71,4.9-2.31,4.9-2.47,0-1.92-3.7-3.52-8.1A8.77,8.77,0,0,0,176.79,35V34.6c7.81-.25,12.27-3.6,12.27-8.85,0-5.95-5-9.15-14.8-9.15H150v2.6h3c2.14,0,2.8.55,2.8,2.65v25.6c0,2.1-.66,2.6-2.8,2.6h-3V52.7h21.23V50.05h-3c-2.09,0-2.75-.45-2.75-2.6V35.35Zm0-13.4c0-2.45.6-2.75,4.23-2.75,6.55,0,9.24,1.5,9.24,6.7,0,5.35-3.3,6.9-11.16,6.9a18.48,18.48,0,0,1-2.32-.1V22ZM109.41,52.7h37.07l.71-13.55-2.75-.2c-2.14,8.3-6.32,11.2-15.56,11.2-3.36,0-4.18-.25-4.18-2.7V35.4h.77c4.84,0,6.87,1.9,7.81,6.9H136V25.75h-2.75c-.94,5-2.92,7-7.81,7h-.77V21.85c0-2.5.82-2.7,4-2.7,8.47,0,12.32,2.7,14.3,10.45h2.7l-.44-13H109.41v2.6h2.75c2.42,0,2.81.65,2.81,2.65v25.6c0,2-.44,2.6-2.81,2.6h-2.75V52.7ZM83.88,47.45V37.2c2,0,3.79,0,5.5,0,12.26,0,18.26-3.25,18.26-10.4,0-6.7-5.17-10.25-15.13-10.25H68.26v2.6h3c2.42,0,2.81.65,2.81,2.65v25.6c0,2-.44,2.6-2.81,2.6h-3V52.7H90V50.05H86.58C84.32,50.05,83.88,49.55,83.88,47.45Zm0-25.1c0-2.8.66-3.15,4.29-3.15,6.43,0,9,1.85,9,7.65,0,6-3,7.65-10.5,7.65a19.08,19.08,0,0,1-2.75-.15Z" class="main-header--contrast"></path>
                            <path d="M29.15,33.58c-.06,0-.13-.12-.13-.12a6.83,6.83,0,0,1,.29-3A6.71,6.71,0,0,1,33,26.15a44.86,44.86,0,0,1,5.37-1.9c2.21-.59,6.95-1.71,6.95-1.71s2.43-.56,4.34-.89,3.55-.49,4.27-.71a9.51,9.51,0,0,0,3.47-1.58c-.79.64.21-.14,0-.06.11-.11.15-.11.21-.19s1-1,.82-1.83-1.59-.67-1.59-.67-2.9,0-3.79.13-1,.39-1.61,1a2.78,2.78,0,0,1-2,.93c-1,0-5.54-.65-7.44-.63a44.18,44.18,0,0,0-10.19,1.06,28.85,28.85,0,0,0-5.57,1.88,9.32,9.32,0,0,0-3.54,2.56,6.28,6.28,0,0,0-.87,3.61c0,.78.46,2.19,0,2.69-.69.7-2.58.51-3.21.42a8.57,8.57,0,0,1-2.9-1,3.28,3.28,0,0,1-1.57-2c-.3-2.29-.9-3.25-2.5-3.4a10.86,10.86,0,0,0-3.31.62,18.29,18.29,0,0,1-2.25.46c-1,.11-2.15.07-2.15.33s.7.34,2.66.28,3.24.14,4.15.76a3.47,3.47,0,0,1,1.49,2.24c.52,1.78.33,2.25,1.16,2.7A35.57,35.57,0,0,0,17.54,33a3,3,0,0,1,2.23,2.86c0,.39.14,3,.17,3.85a9.8,9.8,0,0,0,2.12,5s1,1.79,4.82,3.8a44.34,44.34,0,0,0,4.49,2,7.63,7.63,0,0,1,2.23,1.26c.23.28.79,1,1.23,1s13.5.1,13.5.1.87,0,.43-1A3.68,3.68,0,0,0,47,50.11,9.85,9.85,0,0,0,43.68,49a32.28,32.28,0,0,1-6.48-1.75,27.42,27.42,0,0,1-6.36-4c-1.09-.94-2.78-2.27-3.19-4.21a3,3,0,0,1,.43-2,1.3,1.3,0,0,1,.87-.41l2,.12c.93.05,3,.33,4.24.45s5.59.8,7.06,1.1,6.85,1.82,7.57,2,4.44,1.67,4.84,1.19a2.61,2.61,0,0,0,.24-.52c.27-.67,1.66-8.59,1.66-8.59s.17-1-1.16-1.09a17.37,17.37,0,0,0-2.56-.17,53.73,53.73,0,0,0-6,.79c-3,.52-6.13,1.28-6.13,1.28a34.19,34.19,0,0,1-4.09.82,24.47,24.47,0,0,1-7.1-.2,1.77,1.77,0,0,1-.37-.29" style="fill:#fff"></path>
                        </svg>